<svg width="24" height="24" viewBox="0 0 24 24" fill="none" xmlns="http://www.w3.org/2000/svg">
<path d="M2 19.5L5.5 19.5M22 19.5L9.5 19.5" stroke="white"/>
<path d="M9.5 19.5C9.5 20.6046 8.60457 21.5 7.5 21.5C6.39543 21.5 5.5 20.6046 5.5 19.5C5.5 18.3954 6.39543 17.5 7.5 17.5C8.60457 17.5 9.5 18.3954 9.5 19.5Z" stroke="white"/>
<path d="M22 12L18.5 12M2 12L14.5 12" stroke="white"/>
<path d="M18.5 12C18.5 13.1046 17.6046 14 16.5 14C15.3954 14 14.5 13.1046 14.5 12C14.5 10.8954 15.3954 10 16.5 10C17.6046 10 18.5 10.8954 18.5 12Z" stroke="white"/>
<path d="M2 4.5L5.5 4.5M22 4.5L9.5 4.5" stroke="white"/>
<path d="M9.5 4.5C9.5 5.60457 8.60457 6.5 7.5 6.5C6.39543 6.5 5.5 5.60457 5.5 4.5C5.5 3.39543 6.39543 2.5 7.5 2.5C8.60457 2.5 9.5 3.39543 9.5 4.5Z" stroke="white"/>
</svg>
